<svg width="24" height="24" viewBox="0 0 24 24" fill="none" xmlns="http://www.w3.org/2000/svg">
<path d="M3.75 13.875C3.75 13.2656 4.21875 12.75 4.875 12.75C5.48438 12.75 6 13.2656 6 13.875C6 14.5312 5.48438 15 4.875 15C4.21875 15 3.75 14.5312 3.75 13.875ZM20.25 13.875C20.25 14.5312 19.7344 15 19.125 15C18.4688 15 18 14.5312 18 13.875C18 13.2656 18.4688 12.75 19.125 12.75C19.7344 12.75 20.25 13.2656 20.25 13.875ZM2.25 9.60938L3.84375 4.21875C4.35938 2.625 5.8125 1.5 7.45312 1.5H16.5C18.1406 1.5 19.5938 2.625 20.1094 4.21875L21.7031 9.60938C23.0625 10.4062 24 11.8594 24 13.5V21.75C24 22.1719 23.625 22.5 23.25 22.5C22.8281 22.5 22.5 22.1719 22.5 21.75V19.5H1.5V21.75C1.5 22.1719 1.125 22.5 0.75 22.5C0.328125 22.5 0 22.1719 0 21.75V13.5C0 11.8594 0.890625 10.4062 2.25 9.60938ZM3.98438 9.04688C4.125 9.04688 4.3125 9 4.5 9H19.5C19.6406 9 19.8281 9.04688 19.9688 9.04688L18.6562 4.64062C18.375 3.65625 17.4844 3 16.5 3H7.45312C6.46875 3 5.57812 3.65625 5.29688 4.64062L3.98438 9.04688ZM1.5 13.5V18H22.5V13.5C22.5 12.2344 21.6562 11.1094 20.4844 10.6875C20.1562 10.5938 19.8281 10.5 19.5 10.5H4.5C4.125 10.5 3.79688 10.5938 3.46875 10.6875C2.29688 11.1094 1.5 12.2344 1.5 13.5Z" fill="black"/>
</svg>
