<svg width="24" height="24" viewBox="0 0 24 24" fill="none" xmlns="http://www.w3.org/2000/svg">
<path d="M20.625 4.5C20.625 5.15625 20.1094 5.625 19.5 5.625C18.8438 5.625 18.375 5.15625 18.375 4.5C18.375 3.89062 18.8438 3.375 19.5 3.375C20.1094 3.375 20.625 3.89062 20.625 4.5ZM19.5 12H15.75C14.4844 12 13.5 13.0312 13.5 14.25C13.5 15.5156 14.4844 16.5 15.75 16.5H20.25C22.3125 16.5 24 18.1875 24 20.25C24 22.3594 22.3125 24 20.25 24H6.51562C6.89062 23.625 7.3125 23.1094 7.73438 22.5H20.25C21.4688 22.5 22.5 21.5156 22.5 20.25C22.5 19.0312 21.4688 18 20.25 18H15.75C13.6406 18 11.9531 16.3594 11.9531 14.25C11.9531 12.1875 13.6406 10.5 15.75 10.5H18.1406C16.7812 8.95312 15 6.42188 15 4.5C15 2.01562 16.9688 0 19.5 0C21.9844 0 24 2.01562 24 4.5C24 6.60938 21.8438 9.375 20.4844 10.9219C19.9219 11.5781 19.5 12 19.5 12ZM21.9375 6.28125C22.3125 5.53125 22.5 4.92188 22.5 4.5C22.5 2.85938 21.1406 1.5 19.5 1.5C17.8125 1.5 16.5 2.85938 16.5 4.5C16.5 4.92188 16.6406 5.53125 17.0156 6.28125C17.3906 7.03125 17.9062 7.78125 18.4219 8.48438C18.7969 9 19.1719 9.42188 19.5 9.79688C19.7812 9.42188 20.1562 9 20.5312 8.48438C21.0469 7.78125 21.5625 7.03125 21.9375 6.28125ZM3.32812 16.5C3.32812 15.8906 3.84375 15.375 4.45312 15.375C5.10938 15.375 5.57812 15.8906 5.57812 16.5C5.57812 17.1562 5.10938 17.625 4.45312 17.625C3.84375 17.625 3.32812 17.1562 3.32812 16.5ZM5.48438 22.9219C5.39062 23.0156 5.29688 23.1094 5.25 23.2031C4.78125 23.7188 4.5 24 4.5 24C4.5 24 4.03125 23.5781 3.46875 22.9219C2.10938 21.375 0 18.6094 0 16.5C0 14.0156 1.96875 12 4.5 12C6.98438 12 9 14.0156 9 16.5C9 18.4219 7.125 20.9531 5.8125 22.5469C5.71875 22.6875 5.57812 22.7812 5.48438 22.9219ZM6.9375 18.2812C7.3125 17.5312 7.45312 16.9219 7.45312 16.5C7.45312 14.8594 6.14062 13.5 4.45312 13.5C2.8125 13.5 1.45312 14.8594 1.45312 16.5C1.45312 16.9219 1.64062 17.5312 2.01562 18.2812C2.39062 19.0312 2.90625 19.7812 3.42188 20.4844C3.79688 21 4.17188 21.4219 4.45312 21.7969C4.78125 21.4219 5.15625 21 5.53125 20.4844C6.04688 19.7812 6.5625 19.0312 6.9375 18.2812Z" fill="black"/>
</svg>
