<svg width="24" height="24" viewBox="0 0 24 24" fill="none" xmlns="http://www.w3.org/2000/svg">
<path d="M16.5 0H7.5C5.8125 0 4.5 1.35938 4.5 3V21C4.5 22.6875 5.8125 24 7.5 24H16.5C18.1406 24 19.5 22.6875 19.5 21V3C19.5 1.35938 18.1406 0 16.5 0ZM18 21C18 21.8438 17.2969 22.5 16.5 22.5H7.5C6.65625 22.5 6 21.8438 6 21V3C6 2.20312 6.65625 1.5 7.5 1.5H16.5C17.2969 1.5 18 2.20312 18 3V21ZM13.5 18.75H10.5C10.0781 18.75 9.75 19.125 9.75 19.5C9.75 19.9219 10.0781 20.25 10.5 20.25H13.5C13.875 20.25 14.25 19.9219 14.25 19.5C14.25 19.125 13.875 18.75 13.5 18.75Z" fill="black"/>
</svg>
